<?xml version="1.0" standalone="no"?>
<svg viewBox="0 0 1024 768" version="1.1" xmlns="http://www.w3.org/2000/svg" xmlns:xlink="http://www.w3.org/1999/xlink" stroke-linecap="round" stroke-linejoin="round" fill-rule="evenodd" xml:space="preserve" >
<defs >
<clipPath id="clipId0" >
<path d="M0,768 1024,768 1024,0 0,0 z" />
</clipPath>
</defs>
<g clip-path="url(#clipId0)" fill="none" stroke="rgb(0,0,0)" stroke-width="0.1" />
<g clip-path="url(#clipId0)" fill="none" stroke="rgb(0,0,0)" stroke-width="0.25" >
<polyline points="66.6344,352.496 86.0436,352.496 " />
<polyline points="86.0436,352.496 86.0436,371.906 " />
<polyline points="86.0436,371.906 66.6344,371.906 " />
<polyline points="66.6344,371.906 66.6344,352.496 " />
<polyline points="66.6344,326.108 86.0436,326.108 " />
<polyline points="86.0436,326.108 86.0436,345.518 " />
<polyline points="86.0436,345.518 66.6344,345.518 " />
<polyline points="66.6344,345.518 66.6344,326.108 " />
<polyline points="13.8569,359.093 33.2678,359.093 " />
<polyline points="33.2678,359.093 33.2678,378.504 " />
<polyline points="33.2678,378.504 13.8569,378.504 " />
<polyline points="13.8569,378.504 13.8569,359.093 " />
<polyline points="13.8569,279.93 33.2678,279.93 " />
<polyline points="33.2678,279.93 33.2678,299.341 " />
<polyline points="33.2678,299.341 13.8569,299.341 " />
<polyline points="13.8569,299.341 13.8569,279.93 " />
<polyline points="145.798,276.646 165.207,276.646 " />
<polyline points="165.207,276.646 165.207,296.026 " />
<polyline points="165.207,296.026 145.798,296.026 " />
<polyline points="145.798,296.026 145.798,276.646 " />
<polyline points="13.8569,306.318 33.2678,306.318 " />
<polyline points="33.2678,306.318 33.2678,325.728 " />
<polyline points="33.2678,325.728 13.8569,325.728 " />
<polyline points="13.8569,325.728 13.8569,306.318 " />
<polyline points="13.8569,332.705 33.2678,332.705 " />
<polyline points="33.2678,332.705 33.2678,352.116 " />
<polyline points="33.2678,352.116 13.8569,352.116 " />
<polyline points="13.8569,352.116 13.8569,332.705 " />
<polyline points="40.2466,279.93 59.6558,279.93 " />
<polyline points="59.6558,279.93 59.6558,299.341 " />
<polyline points="59.6558,299.341 40.2466,299.341 " />
<polyline points="40.2466,299.341 40.2466,279.93 " />
<polyline points="40.2466,306.318 59.6558,306.318 " />
<polyline points="59.6558,306.318 59.6558,325.728 " />
<polyline points="59.6558,325.728 40.2466,325.728 " />
<polyline points="40.2466,325.728 40.2466,306.318 " />
<polyline points="40.2466,332.705 59.6558,332.705 " />
<polyline points="59.6558,332.705 59.6558,352.116 " />
<polyline points="59.6558,352.116 40.2466,352.116 " />
<polyline points="40.2466,352.116 40.2466,332.705 " />
<polyline points="40.2466,359.093 59.6558,359.093 " />
<polyline points="59.6558,359.093 59.6558,378.504 " />
<polyline points="59.6558,378.504 40.2466,378.504 " />
<polyline points="40.2466,378.504 40.2466,359.093 " />
<polyline points="66.6324,273.332 86.0436,273.332 " />
<polyline points="86.0436,273.332 86.0436,292.743 " />
<polyline points="86.0436,292.743 66.6324,292.743 " />
<polyline points="66.6324,292.743 66.6324,273.332 " />
<polyline points="66.6324,299.72 86.0436,299.72 " />
<polyline points="86.0436,299.72 86.0436,319.131 " />
<polyline points="86.0436,319.131 66.6324,319.131 " />
<polyline points="66.6324,319.131 66.6324,299.72 " />
<polyline points="93.0221,270.049 112.431,270.049 " />
<polyline points="112.431,270.049 112.431,289.43 " />
<polyline points="112.431,289.43 93.0221,289.43 " />
<polyline points="93.0221,289.43 93.0221,270.049 " />
<polyline points="93.0221,296.437 112.431,296.437 " />
<polyline points="112.431,296.437 112.431,315.817 " />
<polyline points="112.431,315.817 93.0221,315.817 " />
<polyline points="93.0221,315.817 93.0221,296.437 " />
<polyline points="93.0221,322.825 112.431,322.825 " />
<polyline points="112.431,322.825 112.431,342.205 " />
<polyline points="112.431,342.205 93.0221,342.205 " />
<polyline points="93.0221,342.205 93.0221,322.825 " />
<polyline points="93.0221,349.213 112.431,349.213 " />
<polyline points="112.431,349.213 112.431,368.593 " />
<polyline points="112.431,368.593 93.0221,368.593 " />
<polyline points="93.0221,368.593 93.0221,349.213 " />
<polyline points="119.41,273.332 138.819,273.332 " />
<polyline points="138.819,273.332 138.819,292.743 " />
<polyline points="138.819,292.743 119.41,292.743 " />
<polyline points="119.41,292.743 119.41,273.332 " />
<polyline points="119.41,299.72 138.819,299.72 " />
<polyline points="138.819,299.72 138.819,319.131 " />
<polyline points="138.819,319.131 119.41,319.131 " />
<polyline points="119.41,319.131 119.41,299.72 " />
<polyline points="119.41,326.108 138.819,326.108 " />
<polyline points="138.819,326.108 138.819,345.518 " />
<polyline points="138.819,345.518 119.41,345.518 " />
<polyline points="119.41,345.518 119.41,326.108 " />
<polyline points="119.41,352.496 138.819,352.496 " />
<polyline points="138.819,352.496 138.819,371.906 " />
<polyline points="138.819,371.906 119.41,371.906 " />
<polyline points="119.41,371.906 119.41,352.496 " />
<polyline points="145.798,303.033 165.207,303.033 " />
<polyline points="165.207,303.033 165.207,322.414 " />
<polyline points="165.207,322.414 145.798,322.414 " />
<polyline points="145.798,322.414 145.798,303.033 " />
<polyline points="145.798,329.421 165.207,329.421 " />
<polyline points="165.207,329.421 165.207,348.801 " />
<polyline points="165.207,348.801 145.798,348.801 " />
<polyline points="145.798,348.801 145.798,329.421 " />
<polyline points="145.798,355.809 165.207,355.809 " />
<polyline points="165.207,355.809 165.207,375.189 " />
<polyline points="165.207,375.189 145.798,375.189 " />
<polyline points="145.798,375.189 145.798,355.809 " />
<polyline points="172.186,289.84 191.595,289.84 " />
<polyline points="191.595,309.22 172.186,309.22 " />
<polyline points="172.186,309.22 172.186,289.84 " />
<polyline points="172.186,316.227 191.595,316.227 " />
<polyline points="191.595,316.227 191.595,335.607 " />
<polyline points="191.595,335.607 172.186,335.607 " />
<polyline points="172.186,335.607 172.186,316.227 " />
<polyline points="172.186,342.615 191.595,342.615 " />
<polyline points="191.595,342.615 191.595,361.995 " />
<polyline points="191.595,361.995 172.186,361.995 " />
<polyline points="172.186,361.995 172.186,342.615 " />
<polyline points="13.8569,385.482 33.2678,385.482 " />
<polyline points="33.2678,385.482 33.2678,404.892 " />
<polyline points="33.2678,404.892 13.8569,404.892 " />
<polyline points="13.8569,404.892 13.8569,385.482 " />
<polyline points="40.2466,385.482 59.6558,385.482 " />
<polyline points="59.6558,385.482 59.6558,404.892 " />
<polyline points="59.6558,404.892 40.2466,404.892 " />
<polyline points="40.2466,404.892 40.2466,385.482 " />
<polyline points="66.6324,378.885 86.0436,378.885 " />
<polyline points="86.0436,378.885 86.0436,398.294 " />
<polyline points="86.0436,398.294 66.6324,398.294 " />
<polyline points="66.6324,398.294 66.6324,378.885 " />
<polyline points="131.254,398.733 140.93,381.934 " />
<polyline points="140.93,381.934 157.73,391.638 " />
<polyline points="157.73,391.638 148.025,408.438 " />
<polyline points="148.025,408.438 131.254,398.733 " />
<polyline points="169.681,425.209 169.912,425.342 " />
<polyline points="182.151,269.865 181.854,269.865 " />
<polyline points="181.854,269.865 162.462,269.865 " />
<polyline points="162.462,269.865 162.147,269.865 " />
<polyline points="162.147,269.865 161.205,269.738 " />
<polyline points="161.205,269.738 159.839,269.394 " />
<polyline points="159.839,269.394 158.526,268.886 " />
<polyline points="158.526,268.886 157.684,268.445 " />
<polyline points="157.684,268.445 157.431,268.267 " />
<polyline points="157.431,268.267 145.074,259.526 " />
<polyline points="145.074,259.526 144.818,259.345 " />
<polyline points="144.818,259.345 143.976,258.903 " />
<polyline points="143.976,258.903 142.663,258.396 " />
<polyline points="142.663,258.396 141.297,258.052 " />
<polyline points="141.297,258.052 140.355,257.926 " />
<polyline points="140.355,257.926 140.043,257.926 " />
<polyline points="140.043,257.926 91.7965,257.926 " />
<polyline points="91.7965,257.926 91.1075,257.926 " />
<polyline points="91.1075,257.926 89.0458,258.104 " />
<polyline points="89.0458,258.104 86.6945,258.449 " />
<polyline points="86.6945,258.449 86.3241,258.533 " />
<polyline points="86.3241,258.533 12.7421,275.075 " />
<polyline points="12.7421,275.075 12.4673,275.136 " />
<polyline points="12.4673,275.136 11.6923,275.529 " />
<polyline points="11.6923,275.529 10.8314,276.317 " />
<polyline points="10.8314,276.317 10.2511,277.327 " />
<polyline points="10.2511,277.327 10.0392,278.171 " />
<polyline points="10.0392,278.171 10.0392,278.453 " />
<polyline points="10.0392,278.453 10.0392,406.027 " />
<polyline points="10.0392,406.027 10.0392,406.295 " />
<polyline points="10.0392,406.295 10.2568,407.102 " />
<polyline points="10.2568,407.102 10.8524,407.982 " />
<polyline points="10.8524,407.982 11.7324,408.578 " />
<polyline points="11.7324,408.578 12.5398,408.796 " />
<polyline points="12.5398,408.796 12.8089,408.796 " />
<polyline points="12.8089,408.796 138.462,408.796 " />
<polyline points="138.462,408.796 138.777,408.796 " />
<polyline points="138.777,408.796 139.726,408.906 " />
<polyline points="139.726,408.906 141.123,409.204 " />
<polyline points="141.123,409.204 142.48,409.643 " />
<polyline points="142.48,409.643 143.356,410.022 " />
<polyline points="143.356,410.022 143.631,410.18 " />
<polyline points="143.631,410.18 193.833,439.143 " />
<path d="M193.833,439.143  A1.38518,1.38518 0 0,0 195.724,438.637 " />
<polyline points="193.651,434.883 176.867,425.171 " />
<polyline points="176.867,425.171 177.2,424.596 " />
<polyline points="199.537,385.994 199.827,385.492 " />
<polyline points="199.827,385.492 216.611,395.204 " />
<polyline points="10.0392,501.763 10.0392,472.618 " />
<polyline points="10.0392,472.618 10.0392,472.337 " />
<polyline points="10.0392,472.337 10.2511,471.495 " />
<polyline points="10.2511,471.495 10.8314,470.482 " />
<polyline points="10.8314,470.482 11.6923,469.694 " />
<polyline points="11.6923,469.694 12.4673,469.301 " />
<polyline points="12.4673,469.301 12.7421,469.24 " />
<polyline points="12.7421,469.24 86.3241,452.701 " />
<polyline points="86.3241,452.701 86.6945,452.616 " />
<polyline points="86.6945,452.616 89.0458,452.271 " />
<polyline points="89.0458,452.271 91.1075,452.093 " />
<polyline points="91.1075,452.093 91.7965,452.093 " />
<polyline points="91.7965,452.093 140.043,452.093 " />
<polyline points="140.043,452.093 140.355,452.093 " />
<polyline points="140.355,452.093 141.295,452.219 " />
<polyline points="141.295,452.219 142.663,452.562 " />
<polyline points="142.663,452.562 143.976,453.071 " />
<polyline points="143.976,453.071 144.818,453.512 " />
<polyline points="144.818,453.512 145.074,453.693 " />
<polyline points="145.074,453.693 157.428,462.434 " />
<polyline points="157.428,462.434 157.681,462.613 " />
<polyline points="157.681,462.613 158.523,463.054 " />
<polyline points="158.523,463.054 159.839,463.562 " />
<polyline points="159.839,463.562 161.208,463.906 " />
<polyline points="161.208,463.906 162.147,464.033 " />
<polyline points="162.147,464.033 162.462,464.033 " />
<polyline points="162.462,464.033 181.854,464.033 " />
<polyline points="181.854,464.033 182.151,464.033 " />
<polyline points="191.595,289.84 191.595,309.22 " />
<polyline points="197.999,380.335 197.999,379.643 " />
<polyline points="221.22,380.335 221.22,379.643 " />
<polyline points="221.22,355.718 221.22,355.025 " />
<polyline points="197.999,355.718 197.999,355.025 " />
<polyline points="197.999,380.335 221.22,380.335 " />
<polyline points="221.22,379.643 221.22,355.718 " />
<polyline points="197.999,355.718 197.999,379.643 " />
<polyline points="197.999,355.025 221.22,355.025 " />
<polyline points="225.308,355.656 225.308,374.541 " />
<polyline points="225.308,374.541 225.308,378.258 " />
<polyline points="225.308,356.349 225.308,375.234 " />
<polyline points="225.308,375.234 225.308,378.95 " />
<path d="M225.309,353.552  A2.32562,2.32562 0 0,0 222.983,351.219 " />
<polyline points="225.308,356.349 225.309,353.552 " />
<polyline points="210.067,351.219 222.983,351.219 " />
<polyline points="225.308,378.95 220.555,395.746 " />
<polyline points="197.152,289.175 197.152,288.859 " />
<polyline points="197.152,288.859 197.03,287.917 " />
<polyline points="197.03,287.917 196.696,286.543 " />
<polyline points="196.696,286.543 196.203,285.218 " />
<polyline points="196.203,285.218 195.778,284.368 " />
<polyline points="195.778,284.368 195.605,284.109 " />
<polyline points="195.605,284.109 187.557,272.168 " />
<polyline points="187.557,272.168 187.388,271.917 " />
<polyline points="187.388,271.917 186.736,271.274 " />
<polyline points="186.736,271.274 185.65,270.543 " />
<polyline points="185.65,270.543 184.436,270.05 " />
<polyline points="184.436,270.05 183.536,269.868 " />
<path d="M197.152,336.922  A14.3001,14.3001 0 0,0 211.452,351.222 " />
<polyline points="197.152,289.175 197.152,336.922 " />
<polyline points="183.536,269.868 183.077,269.868 " />
<polyline points="195.724,438.637 220.555,395.746 " />
<polyline points="183.077,269.868 182.151,269.865 " />
<polyline points="197.152,483.34 197.152,501.763 " />
<polyline points="183.239,464.033 183.536,464.033 " />
<polyline points="183.536,464.033 184.436,464.213 " />
<polyline points="184.436,464.213 185.65,464.708 " />
<polyline points="185.65,464.708 186.736,465.436 " />
<polyline points="186.736,465.436 187.388,466.08 " />
<polyline points="187.388,466.08 187.557,466.33 " />
<polyline points="187.557,466.33 195.605,478.273 " />
<polyline points="195.605,478.273 195.778,478.533 " />
<polyline points="195.778,478.533 196.203,479.382 " />
<polyline points="196.203,479.382 196.696,480.706 " />
<polyline points="196.696,480.706 197.03,482.082 " />
<polyline points="197.03,482.082 197.152,483.024 " />
<polyline points="197.152,483.024 197.152,483.34 " />
<polyline points="197.152,483.34 197.152,501.763 " />
<polyline points="183.239,464.033 182.151,464.033 " />
<polyline points="10.0392,507.303 10.0392,501.763 " />
<polyline points="197.152,507.303 197.152,501.763 " />
<polyline points="193.263,510.074 192.995,510.074 " />
<polyline points="192.995,510.074 12.8089,510.074 " />
<polyline points="12.8089,510.074 12.5398,510.074 " />
<polyline points="12.5398,510.074 11.7324,509.855 " />
<polyline points="11.7324,509.855 10.8524,509.259 " />
<polyline points="10.8524,509.259 10.2568,508.378 " />
<polyline points="10.2568,508.378 10.0392,507.571 " />
<polyline points="10.0392,507.571 10.0392,507.303 " />
<polyline points="193.263,510.074 192.995,510.074 " />
<polyline points="197.152,507.303 197.152,507.571 " />
<polyline points="197.152,507.571 196.933,508.378 " />
<polyline points="196.933,508.378 196.338,509.259 " />
<polyline points="196.338,509.259 195.455,509.855 " />
<polyline points="195.455,509.855 194.648,510.074 " />
<polyline points="194.648,510.074 194.38,510.074 " />
<polyline points="193.263,510.074 194.38,510.074 " />
<circle cx="214.227" cy="385.116" r="1.66222" />
<circle cx="160.396" cy="382.125" r="1.66222" />
<circle cx="90.2049" cy="371.922" r="1.66222" />
<circle cx="36.7257" cy="382.477" r="1.66222" />
<circle cx="36.7257" cy="302.962" r="1.66222" />
<circle cx="89.5009" cy="322.665" r="1.66222" />
<circle cx="168.664" cy="299.444" r="1.66222" />
<circle cx="80.9058" cy="268.414" r="1.66222" />
<polyline points="160.703,400.501 170.38,383.701 " />
<polyline points="170.38,383.701 187.179,393.406 " />
<polyline points="187.179,393.406 177.474,410.205 " />
<polyline points="177.474,410.205 160.703,400.501 " />
<polyline points="190.153,402.268 199.829,385.469 " />
<polyline points="199.829,385.469 216.629,395.173 " />
<polyline points="216.629,395.173 206.924,411.973 " />
<polyline points="206.924,411.973 190.153,402.268 " />
<polyline points="176.959,425.121 186.635,408.321 " />
<polyline points="186.635,408.321 203.435,418.026 " />
<polyline points="203.435,418.026 193.73,434.825 " />
<circle cx="36.7257" cy="497.125" r="1.66222" />
<circle cx="168.664" cy="493.606" r="1.66222" />
<circle cx="80.9058" cy="462.576" r="1.66222" />
<polyline points="93.0202,375.6 112.429,375.6 " />
<polyline points="112.429,375.6 112.429,394.981 " />
<polyline points="112.429,394.981 93.0202,394.981 " />
<polyline points="93.0202,394.981 93.0202,375.6 " />
<polyline points="323.777,352.496 343.186,352.496 " />
<polyline points="343.186,352.496 343.186,371.906 " />
<polyline points="343.186,371.906 323.777,371.906 " />
<polyline points="323.777,371.906 323.777,352.496 " />
<polyline points="323.777,326.108 343.186,326.108 " />
<polyline points="343.186,326.108 343.186,345.518 " />
<polyline points="343.186,345.518 323.777,345.518 " />
<polyline points="323.777,345.518 323.777,326.108 " />
<polyline points="271,359.093 290.411,359.093 " />
<polyline points="290.411,359.093 290.411,378.504 " />
<polyline points="290.411,378.504 271,378.504 " />
<polyline points="271,378.504 271,359.093 " />
<polyline points="271,279.93 290.411,279.93 " />
<polyline points="290.411,279.93 290.411,299.341 " />
<polyline points="290.411,299.341 271,299.341 " />
<polyline points="271,299.341 271,279.93 " />
<polyline points="402.94,276.646 422.35,276.646 " />
<polyline points="422.35,276.646 422.35,296.026 " />
<polyline points="422.35,296.026 402.94,296.026 " />
<polyline points="402.94,296.026 402.94,276.646 " />
<polyline points="271,306.318 290.411,306.318 " />
<polyline points="290.411,306.318 290.411,325.728 " />
<polyline points="290.411,325.728 271,325.728 " />
<polyline points="271,325.728 271,306.318 " />
<polyline points="271,332.705 290.411,332.705 " />
<polyline points="290.411,332.705 290.411,352.116 " />
<polyline points="290.411,352.116 271,352.116 " />
<polyline points="271,352.116 271,332.705 " />
<polyline points="297.389,279.93 316.799,279.93 " />
<polyline points="316.799,279.93 316.799,299.341 " />
<polyline points="316.799,299.341 297.389,299.341 " />
<polyline points="297.389,299.341 297.389,279.93 " />
<polyline points="297.389,306.318 316.799,306.318 " />
<polyline points="316.799,306.318 316.799,325.728 " />
<polyline points="316.799,325.728 297.389,325.728 " />
<polyline points="297.389,325.728 297.389,306.318 " />
<polyline points="297.389,332.705 316.799,332.705 " />
<polyline points="316.799,332.705 316.799,352.116 " />
<polyline points="316.799,352.116 297.389,352.116 " />
<polyline points="297.389,352.116 297.389,332.705 " />
<polyline points="297.389,359.093 316.799,359.093 " />
<polyline points="316.799,359.093 316.799,378.504 " />
<polyline points="316.799,378.504 297.389,378.504 " />
<polyline points="297.389,378.504 297.389,359.093 " />
<polyline points="323.775,273.332 343.186,273.332 " />
<polyline points="343.186,273.332 343.186,292.743 " />
<polyline points="343.186,292.743 323.775,292.743 " />
<polyline points="323.775,292.743 323.775,273.332 " />
<polyline points="323.775,299.72 343.186,299.72 " />
<polyline points="343.186,299.72 343.186,319.131 " />
<polyline points="343.186,319.131 323.775,319.131 " />
<polyline points="323.775,319.131 323.775,299.72 " />
<polyline points="350.165,270.049 369.574,270.049 " />
<polyline points="369.574,270.049 369.574,289.43 " />
<polyline points="369.574,289.43 350.165,289.43 " />
<polyline points="350.165,289.43 350.165,270.049 " />
<polyline points="350.165,296.437 369.574,296.437 " />
<polyline points="369.574,296.437 369.574,315.817 " />
<polyline points="369.574,315.817 350.165,315.817 " />
<polyline points="350.165,315.817 350.165,296.437 " />
<polyline points="350.165,322.825 369.574,322.825 " />
<polyline points="369.574,322.825 369.574,342.205 " />
<polyline points="369.574,342.205 350.165,342.205 " />
<polyline points="350.165,342.205 350.165,322.825 " />
<polyline points="350.165,349.213 369.574,349.213 " />
<polyline points="369.574,349.213 369.574,368.593 " />
<polyline points="369.574,368.593 350.165,368.593 " />
<polyline points="350.165,368.593 350.165,349.213 " />
<polyline points="376.553,273.332 395.962,273.332 " />
<polyline points="395.962,273.332 395.962,292.743 " />
<polyline points="395.962,292.743 376.553,292.743 " />
<polyline points="376.553,292.743 376.553,273.332 " />
<polyline points="376.553,299.72 395.962,299.72 " />
<polyline points="395.962,299.72 395.962,319.131 " />
<polyline points="395.962,319.131 376.553,319.131 " />
<polyline points="376.553,319.131 376.553,299.72 " />
<polyline points="376.553,326.108 395.962,326.108 " />
<polyline points="395.962,326.108 395.962,345.518 " />
<polyline points="395.962,345.518 376.553,345.518 " />
<polyline points="376.553,345.518 376.553,326.108 " />
<polyline points="376.553,352.496 395.962,352.496 " />
<polyline points="395.962,352.496 395.962,371.906 " />
<polyline points="395.962,371.906 376.553,371.906 " />
<polyline points="376.553,371.906 376.553,352.496 " />
<polyline points="402.94,303.033 422.35,303.033 " />
<polyline points="422.35,303.033 422.35,322.414 " />
<polyline points="422.35,322.414 402.94,322.414 " />
<polyline points="402.94,322.414 402.94,303.033 " />
<polyline points="402.94,329.421 422.35,329.421 " />
<polyline points="422.35,329.421 422.35,348.801 " />
<polyline points="422.35,348.801 402.94,348.801 " />
<polyline points="402.94,348.801 402.94,329.421 " />
<polyline points="402.94,355.809 422.35,355.809 " />
<polyline points="422.35,355.809 422.35,375.189 " />
<polyline points="422.35,375.189 402.94,375.189 " />
<polyline points="402.94,375.189 402.94,355.809 " />
<polyline points="429.328,289.84 448.737,289.84 " />
<polyline points="448.737,309.22 429.328,309.22 " />
<polyline points="429.328,309.22 429.328,289.84 " />
<polyline points="429.328,316.227 448.737,316.227 " />
<polyline points="448.737,316.227 448.737,335.607 " />
<polyline points="448.737,335.607 429.328,335.607 " />
<polyline points="429.328,335.607 429.328,316.227 " />
<polyline points="429.328,342.615 448.737,342.615 " />
<polyline points="448.737,342.615 448.737,361.995 " />
<polyline points="448.737,361.995 429.328,361.995 " />
<polyline points="429.328,361.995 429.328,342.615 " />
<polyline points="271,385.482 290.411,385.482 " />
<polyline points="290.411,385.482 290.411,404.892 " />
<polyline points="290.411,404.892 271,404.892 " />
<polyline points="271,404.892 271,385.482 " />
<polyline points="297.389,385.482 316.799,385.482 " />
<polyline points="316.799,385.482 316.799,404.892 " />
<polyline points="316.799,404.892 297.389,404.892 " />
<polyline points="297.389,404.892 297.389,385.482 " />
<polyline points="323.775,378.885 343.186,378.885 " />
<polyline points="343.186,378.885 343.186,398.294 " />
<polyline points="343.186,398.294 323.775,398.294 " />
<polyline points="323.775,398.294 323.775,378.885 " />
<polyline points="388.397,398.733 398.073,381.934 " />
<polyline points="398.073,381.934 414.873,391.638 " />
<polyline points="414.873,391.638 405.168,408.438 " />
<polyline points="405.168,408.438 388.397,398.733 " />
<polyline points="426.824,425.209 427.055,425.342 " />
<polyline points="439.293,269.865 438.997,269.865 " />
<polyline points="438.997,269.865 419.604,269.865 " />
<polyline points="419.604,269.865 419.29,269.865 " />
<polyline points="419.29,269.865 418.348,269.738 " />
<polyline points="418.348,269.738 416.982,269.394 " />
<polyline points="416.982,269.394 415.669,268.886 " />
<polyline points="415.669,268.886 414.827,268.445 " />
<polyline points="414.827,268.445 414.573,268.267 " />
<polyline points="414.573,268.267 402.217,259.526 " />
<polyline points="402.217,259.526 401.961,259.345 " />
<polyline points="401.961,259.345 401.119,258.903 " />
<polyline points="401.119,258.903 399.806,258.396 " />
<polyline points="399.806,258.396 398.439,258.052 " />
<polyline points="398.439,258.052 397.498,257.926 " />
<polyline points="397.498,257.926 397.185,257.926 " />
<polyline points="397.185,257.926 348.939,257.926 " />
<polyline points="348.939,257.926 348.25,257.926 " />
<polyline points="348.25,257.926 346.189,258.104 " />
<polyline points="346.189,258.104 343.837,258.449 " />
<polyline points="343.837,258.449 343.467,258.533 " />
<polyline points="343.467,258.533 269.885,275.075 " />
<polyline points="269.885,275.075 269.61,275.136 " />
<polyline points="269.61,275.136 268.835,275.529 " />
<polyline points="268.835,275.529 267.974,276.317 " />
<polyline points="267.974,276.317 267.394,277.327 " />
<polyline points="267.394,277.327 267.182,278.171 " />
<polyline points="267.182,278.171 267.182,278.453 " />
<polyline points="267.182,278.453 267.182,406.027 " />
<polyline points="267.182,406.027 267.182,406.295 " />
<polyline points="267.182,406.295 267.4,407.102 " />
<polyline points="267.4,407.102 267.995,407.982 " />
<polyline points="267.995,407.982 268.875,408.578 " />
<polyline points="268.875,408.578 269.683,408.796 " />
<polyline points="269.683,408.796 269.952,408.796 " />
<polyline points="269.952,408.796 395.605,408.796 " />
<polyline points="395.605,408.796 395.92,408.796 " />
<polyline points="395.92,408.796 396.868,408.906 " />
<polyline points="396.868,408.906 398.265,409.204 " />
<polyline points="398.265,409.204 399.623,409.643 " />
<polyline points="399.623,409.643 400.499,410.022 " />
<polyline points="400.499,410.022 400.774,410.18 " />
<polyline points="400.774,410.18 450.975,439.143 " />
<path d="M450.975,439.143  A1.38518,1.38518 0 0,0 452.866,438.637 " />
<polyline points="450.794,434.883 434.01,425.171 " />
<polyline points="434.01,425.171 434.342,424.596 " />
<polyline points="456.68,385.994 456.969,385.492 " />
<polyline points="456.969,385.492 473.754,395.204 " />
<polyline points="267.182,501.763 267.182,472.618 " />
<polyline points="267.182,472.618 267.182,472.337 " />
<polyline points="267.182,472.337 267.394,471.495 " />
<polyline points="267.394,471.495 267.974,470.482 " />
<polyline points="267.974,470.482 268.835,469.694 " />
<polyline points="268.835,469.694 269.61,469.301 " />
<polyline points="269.61,469.301 269.885,469.24 " />
<polyline points="269.885,469.24 343.467,452.701 " />
<polyline points="343.467,452.701 343.837,452.616 " />
<polyline points="343.837,452.616 346.189,452.271 " />
<polyline points="346.189,452.271 348.25,452.093 " />
<polyline points="348.25,452.093 348.939,452.093 " />
<polyline points="348.939,452.093 397.185,452.093 " />
<polyline points="397.185,452.093 397.498,452.093 " />
<polyline points="397.498,452.093 398.437,452.219 " />
<polyline points="398.437,452.219 399.806,452.562 " />
<polyline points="399.806,452.562 401.119,453.071 " />
<polyline points="401.119,453.071 401.961,453.512 " />
<polyline points="401.961,453.512 402.217,453.693 " />
<polyline points="402.217,453.693 414.571,462.434 " />
<polyline points="414.571,462.434 414.824,462.613 " />
<polyline points="414.824,462.613 415.666,463.054 " />
<polyline points="415.666,463.054 416.982,463.562 " />
<polyline points="416.982,463.562 418.351,463.906 " />
<polyline points="418.351,463.906 419.29,464.033 " />
<polyline points="419.29,464.033 419.604,464.033 " />
<polyline points="419.604,464.033 438.997,464.033 " />
<polyline points="438.997,464.033 439.293,464.033 " />
<polyline points="448.737,289.84 448.737,309.22 " />
<polyline points="455.142,380.335 455.142,379.643 " />
<polyline points="478.363,380.335 478.363,379.643 " />
<polyline points="478.363,355.718 478.363,355.025 " />
<polyline points="455.142,355.718 455.142,355.025 " />
<polyline points="455.142,380.335 478.363,380.335 " />
<polyline points="478.363,379.643 478.363,355.718 " />
<polyline points="455.142,355.718 455.142,379.643 " />
<polyline points="455.142,355.025 478.363,355.025 " />
<polyline points="482.451,355.656 482.451,374.541 " />
<polyline points="482.451,374.541 482.451,378.258 " />
<polyline points="482.451,356.349 482.451,375.234 " />
<polyline points="482.451,375.234 482.451,378.95 " />
<path d="M482.451,353.552  A2.32562,2.32562 0 0,0 480.126,351.219 " />
<polyline points="482.451,356.349 482.451,353.552 " />
<polyline points="467.21,351.219 480.126,351.219 " />
<polyline points="482.451,378.95 477.698,395.746 " />
<polyline points="454.295,289.175 454.295,288.859 " />
<polyline points="454.295,288.859 454.173,287.917 " />
<polyline points="454.173,287.917 453.839,286.543 " />
<polyline points="453.839,286.543 453.346,285.218 " />
<polyline points="453.346,285.218 452.921,284.368 " />
<polyline points="452.921,284.368 452.748,284.109 " />
<polyline points="452.748,284.109 444.7,272.168 " />
<polyline points="444.7,272.168 444.531,271.917 " />
<polyline points="444.531,271.917 443.878,271.274 " />
<polyline points="443.878,271.274 442.792,270.543 " />
<polyline points="442.792,270.543 441.579,270.05 " />
<polyline points="441.579,270.05 440.678,269.868 " />
<path d="M454.295,336.922  A14.3001,14.3001 0 0,0 468.595,351.222 " />
<polyline points="454.295,289.175 454.295,336.922 " />
<polyline points="440.678,269.868 440.22,269.868 " />
<polyline points="452.866,438.637 477.698,395.746 " />
<polyline points="440.22,269.868 439.293,269.865 " />
<polyline points="454.295,483.34 454.295,501.763 " />
<polyline points="440.382,464.033 440.678,464.033 " />
<polyline points="440.678,464.033 441.579,464.213 " />
<polyline points="441.579,464.213 442.792,464.708 " />
<polyline points="442.792,464.708 443.878,465.436 " />
<polyline points="443.878,465.436 444.531,466.08 " />
<polyline points="444.531,466.08 444.7,466.33 " />
<polyline points="444.7,466.33 452.748,478.273 " />
<polyline points="452.748,478.273 452.921,478.533 " />
<polyline points="452.921,478.533 453.346,479.382 " />
<polyline points="453.346,479.382 453.839,480.706 " />
<polyline points="453.839,480.706 454.173,482.082 " />
<polyline points="454.173,482.082 454.295,483.024 " />
<polyline points="454.295,483.024 454.295,483.34 " />
<polyline points="454.295,483.34 454.295,501.763 " />
<polyline points="440.382,464.033 439.293,464.033 " />
<polyline points="267.182,507.303 267.182,501.763 " />
<polyline points="454.295,507.303 454.295,501.763 " />
<polyline points="450.405,510.074 450.138,510.074 " />
<polyline points="450.138,510.074 269.952,510.074 " />
<polyline points="269.952,510.074 269.683,510.074 " />
<polyline points="269.683,510.074 268.875,509.855 " />
<polyline points="268.875,509.855 267.995,509.259 " />
<polyline points="267.995,509.259 267.4,508.378 " />
<polyline points="267.4,508.378 267.182,507.571 " />
<polyline points="267.182,507.571 267.182,507.303 " />
<polyline points="450.405,510.074 450.138,510.074 " />
<polyline points="454.295,507.303 454.295,507.571 " />
<polyline points="454.295,507.571 454.076,508.378 " />
<polyline points="454.076,508.378 453.48,509.259 " />
<polyline points="453.48,509.259 452.598,509.855 " />
<polyline points="452.598,509.855 451.79,510.074 " />
<polyline points="451.79,510.074 451.523,510.074 " />
<polyline points="450.405,510.074 451.523,510.074 " />
<circle cx="471.37" cy="385.116" r="1.66222" />
<circle cx="417.539" cy="382.125" r="1.66222" />
<circle cx="347.348" cy="371.922" r="1.66222" />
<circle cx="293.868" cy="382.477" r="1.66222" />
<circle cx="293.868" cy="302.962" r="1.66222" />
<circle cx="346.644" cy="322.665" r="1.66222" />
<circle cx="425.807" cy="299.444" r="1.66222" />
<circle cx="338.049" cy="268.414" r="1.66222" />
<polyline points="417.846,400.501 427.522,383.701 " />
<polyline points="427.522,383.701 444.322,393.406 " />
<polyline points="444.322,393.406 434.617,410.205 " />
<polyline points="434.617,410.205 417.846,400.501 " />
<polyline points="447.296,402.268 456.972,385.469 " />
<polyline points="456.972,385.469 473.772,395.173 " />
<polyline points="473.772,395.173 464.067,411.973 " />
<polyline points="464.067,411.973 447.296,402.268 " />
<polyline points="434.102,425.121 443.778,408.321 " />
<polyline points="443.778,408.321 460.578,418.026 " />
<polyline points="460.578,418.026 450.873,434.825 " />
<circle cx="293.868" cy="497.125" r="1.66222" />
<circle cx="425.807" cy="493.606" r="1.66222" />
<circle cx="338.049" cy="462.576" r="1.66222" />
<polyline points="350.163,375.6 369.572,375.6 " />
<polyline points="369.572,375.6 369.572,394.981 " />
<polyline points="369.572,394.981 350.163,394.981 " />
<polyline points="350.163,394.981 350.163,375.6 " />
<polyline points="582.607,352.496 602.016,352.496 " />
<polyline points="602.016,352.496 602.016,371.906 " />
<polyline points="602.016,371.906 582.607,371.906 " />
<polyline points="582.607,371.906 582.607,352.496 " />
<polyline points="582.607,326.108 602.016,326.108 " />
<polyline points="602.016,326.108 602.016,345.518 " />
<polyline points="602.016,345.518 582.607,345.518 " />
<polyline points="582.607,345.518 582.607,326.108 " />
<polyline points="529.829,359.093 549.24,359.093 " />
<polyline points="549.24,359.093 549.24,378.504 " />
<polyline points="549.24,378.504 529.829,378.504 " />
<polyline points="529.829,378.504 529.829,359.093 " />
<polyline points="529.829,279.93 549.24,279.93 " />
<polyline points="549.24,279.93 549.24,299.341 " />
<polyline points="549.24,299.341 529.829,299.341 " />
<polyline points="529.829,299.341 529.829,279.93 " />
<polyline points="661.77,276.646 681.179,276.646 " />
<polyline points="681.179,276.646 681.179,296.026 " />
<polyline points="681.179,296.026 661.77,296.026 " />
<polyline points="661.77,296.026 661.77,276.646 " />
<polyline points="529.829,306.318 549.24,306.318 " />
<polyline points="549.24,306.318 549.24,325.728 " />
<polyline points="549.24,325.728 529.829,325.728 " />
<polyline points="529.829,325.728 529.829,306.318 " />
<polyline points="529.829,332.705 549.24,332.705 " />
<polyline points="549.24,332.705 549.24,352.116 " />
<polyline points="549.24,352.116 529.829,352.116 " />
<polyline points="529.829,352.116 529.829,332.705 " />
<polyline points="556.219,279.93 575.628,279.93 " />
<polyline points="575.628,279.93 575.628,299.341 " />
<polyline points="575.628,299.341 556.219,299.341 " />
<polyline points="556.219,299.341 556.219,279.93 " />
<polyline points="556.219,306.318 575.628,306.318 " />
<polyline points="575.628,306.318 575.628,325.728 " />
<polyline points="575.628,325.728 556.219,325.728 " />
<polyline points="556.219,325.728 556.219,306.318 " />
<polyline points="556.219,332.705 575.628,332.705 " />
<polyline points="575.628,332.705 575.628,352.116 " />
<polyline points="575.628,352.116 556.219,352.116 " />
<polyline points="556.219,352.116 556.219,332.705 " />
<polyline points="556.219,359.093 575.628,359.093 " />
<polyline points="575.628,359.093 575.628,378.504 " />
<polyline points="575.628,378.504 556.219,378.504 " />
<polyline points="556.219,378.504 556.219,359.093 " />
<polyline points="582.605,273.332 602.016,273.332 " />
<polyline points="602.016,273.332 602.016,292.743 " />
<polyline points="602.016,292.743 582.605,292.743 " />
<polyline points="582.605,292.743 582.605,273.332 " />
<polyline points="582.605,299.72 602.016,299.72 " />
<polyline points="602.016,299.72 602.016,319.131 " />
<polyline points="602.016,319.131 582.605,319.131 " />
<polyline points="582.605,319.131 582.605,299.72 " />
<polyline points="608.995,270.049 628.404,270.049 " />
<polyline points="628.404,270.049 628.404,289.43 " />
<polyline points="628.404,289.43 608.995,289.43 " />
<polyline points="608.995,289.43 608.995,270.049 " />
<polyline points="608.995,296.437 628.404,296.437 " />
<polyline points="628.404,296.437 628.404,315.817 " />
<polyline points="628.404,315.817 608.995,315.817 " />
<polyline points="608.995,315.817 608.995,296.437 " />
<polyline points="608.995,322.825 628.404,322.825 " />
<polyline points="628.404,322.825 628.404,342.205 " />
<polyline points="628.404,342.205 608.995,342.205 " />
<polyline points="608.995,342.205 608.995,322.825 " />
<polyline points="608.995,349.213 628.404,349.213 " />
<polyline points="628.404,349.213 628.404,368.593 " />
<polyline points="628.404,368.593 608.995,368.593 " />
<polyline points="608.995,368.593 608.995,349.213 " />
<polyline points="635.382,273.332 654.792,273.332 " />
<polyline points="654.792,273.332 654.792,292.743 " />
<polyline points="654.792,292.743 635.382,292.743 " />
<polyline points="635.382,292.743 635.382,273.332 " />
<polyline points="635.382,299.72 654.792,299.72 " />
<polyline points="654.792,299.72 654.792,319.131 " />
<polyline points="654.792,319.131 635.382,319.131 " />
<polyline points="635.382,319.131 635.382,299.72 " />
<polyline points="635.382,326.108 654.792,326.108 " />
<polyline points="654.792,326.108 654.792,345.518 " />
<polyline points="654.792,345.518 635.382,345.518 " />
<polyline points="635.382,345.518 635.382,326.108 " />
<polyline points="635.382,352.496 654.792,352.496 " />
<polyline points="654.792,352.496 654.792,371.906 " />
<polyline points="654.792,371.906 635.382,371.906 " />
<polyline points="635.382,371.906 635.382,352.496 " />
<polyline points="661.77,303.033 681.179,303.033 " />
<polyline points="681.179,303.033 681.179,322.414 " />
<polyline points="681.179,322.414 661.77,322.414 " />
<polyline points="661.77,322.414 661.77,303.033 " />
<polyline points="661.77,329.421 681.179,329.421 " />
<polyline points="681.179,329.421 681.179,348.801 " />
<polyline points="681.179,348.801 661.77,348.801 " />
<polyline points="661.77,348.801 661.77,329.421 " />
<polyline points="661.77,355.809 681.179,355.809 " />
<polyline points="681.179,355.809 681.179,375.189 " />
<polyline points="681.179,375.189 661.77,375.189 " />
<polyline points="661.77,375.189 661.77,355.809 " />
<polyline points="688.158,289.84 707.567,289.84 " />
<polyline points="707.567,309.22 688.158,309.22 " />
<polyline points="688.158,309.22 688.158,289.84 " />
<polyline points="688.158,316.227 707.567,316.227 " />
<polyline points="707.567,316.227 707.567,335.607 " />
<polyline points="707.567,335.607 688.158,335.607 " />
<polyline points="688.158,335.607 688.158,316.227 " />
<polyline points="688.158,342.615 707.567,342.615 " />
<polyline points="707.567,342.615 707.567,361.995 " />
<polyline points="707.567,361.995 688.158,361.995 " />
<polyline points="688.158,361.995 688.158,342.615 " />
<polyline points="529.829,385.482 549.24,385.482 " />
<polyline points="549.24,385.482 549.24,404.892 " />
<polyline points="549.24,404.892 529.829,404.892 " />
<polyline points="529.829,404.892 529.829,385.482 " />
<polyline points="556.219,385.482 575.628,385.482 " />
<polyline points="575.628,385.482 575.628,404.892 " />
<polyline points="575.628,404.892 556.219,404.892 " />
<polyline points="556.219,404.892 556.219,385.482 " />
<polyline points="582.605,378.885 602.016,378.885 " />
<polyline points="602.016,378.885 602.016,398.294 " />
<polyline points="602.016,398.294 582.605,398.294 " />
<polyline points="582.605,398.294 582.605,378.885 " />
<polyline points="647.227,398.733 656.903,381.934 " />
<polyline points="656.903,381.934 673.702,391.638 " />
<polyline points="673.702,391.638 663.997,408.438 " />
<polyline points="663.997,408.438 647.227,398.733 " />
<polyline points="685.654,425.209 685.885,425.342 " />
<polyline points="698.123,269.865 697.827,269.865 " />
<polyline points="697.827,269.865 678.434,269.865 " />
<polyline points="678.434,269.865 678.12,269.865 " />
<polyline points="678.12,269.865 677.178,269.738 " />
<polyline points="677.178,269.738 675.812,269.394 " />
<polyline points="675.812,269.394 674.499,268.886 " />
<polyline points="674.499,268.886 673.657,268.445 " />
<polyline points="673.657,268.445 673.403,268.267 " />
<polyline points="673.403,268.267 661.046,259.526 " />
<polyline points="661.046,259.526 660.791,259.345 " />
<polyline points="660.791,259.345 659.949,258.903 " />
<polyline points="659.949,258.903 658.636,258.396 " />
<polyline points="658.636,258.396 657.269,258.052 " />
<polyline points="657.269,258.052 656.328,257.926 " />
<polyline points="656.328,257.926 656.015,257.926 " />
<polyline points="656.015,257.926 607.769,257.926 " />
<polyline points="607.769,257.926 607.08,257.926 " />
<polyline points="607.08,257.926 605.018,258.104 " />
<polyline points="605.018,258.104 602.667,258.449 " />
<polyline points="602.667,258.449 602.297,258.533 " />
<polyline points="602.297,258.533 528.715,275.075 " />
<polyline points="528.715,275.075 528.44,275.136 " />
<polyline points="528.44,275.136 527.665,275.529 " />
<polyline points="527.665,275.529 526.804,276.317 " />
<polyline points="526.804,276.317 526.224,277.327 " />
<polyline points="526.224,277.327 526.012,278.171 " />
<polyline points="526.012,278.171 526.012,278.453 " />
<polyline points="526.012,278.453 526.012,406.027 " />
<polyline points="526.012,406.027 526.012,406.295 " />
<polyline points="526.012,406.295 526.229,407.102 " />
<polyline points="526.229,407.102 526.825,407.982 " />
<polyline points="526.825,407.982 527.705,408.578 " />
<polyline points="527.705,408.578 528.512,408.796 " />
<polyline points="528.512,408.796 528.781,408.796 " />
<polyline points="528.781,408.796 654.434,408.796 " />
<polyline points="654.434,408.796 654.749,408.796 " />
<polyline points="654.749,408.796 655.698,408.906 " />
<polyline points="655.698,408.906 657.095,409.204 " />
<polyline points="657.095,409.204 658.453,409.643 " />
<polyline points="658.453,409.643 659.329,410.022 " />
<polyline points="659.329,410.022 659.603,410.18 " />
<polyline points="659.603,410.18 709.805,439.143 " />
<path d="M709.805,439.143  A1.38518,1.38518 0 0,0 711.696,438.637 " />
<polyline points="709.624,434.883 692.84,425.171 " />
<polyline points="692.84,425.171 693.172,424.596 " />
<polyline points="715.51,385.994 715.799,385.492 " />
<polyline points="715.799,385.492 732.583,395.204 " />
<polyline points="526.012,501.763 526.012,472.618 " />
<polyline points="526.012,472.618 526.012,472.337 " />
<polyline points="526.012,472.337 526.224,471.495 " />
<polyline points="526.224,471.495 526.804,470.482 " />
<polyline points="526.804,470.482 527.665,469.694 " />
<polyline points="527.665,469.694 528.44,469.301 " />
<polyline points="528.44,469.301 528.715,469.24 " />
<polyline points="528.715,469.24 602.297,452.701 " />
<polyline points="602.297,452.701 602.667,452.616 " />
<polyline points="602.667,452.616 605.018,452.271 " />
<polyline points="605.018,452.271 607.08,452.093 " />
<polyline points="607.08,452.093 607.769,452.093 " />
<polyline points="607.769,452.093 656.015,452.093 " />
<polyline points="656.015,452.093 656.328,452.093 " />
<polyline points="656.328,452.093 657.267,452.219 " />
<polyline points="657.267,452.219 658.636,452.562 " />
<polyline points="658.636,452.562 659.949,453.071 " />
<polyline points="659.949,453.071 660.791,453.512 " />
<polyline points="660.791,453.512 661.046,453.693 " />
<polyline points="661.046,453.693 673.4,462.434 " />
<polyline points="673.4,462.434 673.654,462.613 " />
<polyline points="673.654,462.613 674.496,463.054 " />
<polyline points="674.496,463.054 675.812,463.562 " />
<polyline points="675.812,463.562 677.18,463.906 " />
<polyline points="677.18,463.906 678.12,464.033 " />
<polyline points="678.12,464.033 678.434,464.033 " />
<polyline points="678.434,464.033 697.827,464.033 " />
<polyline points="697.827,464.033 698.123,464.033 " />
<polyline points="707.567,289.84 707.567,309.22 " />
<polyline points="713.971,380.335 713.971,379.643 " />
<polyline points="737.192,380.335 737.192,379.643 " />
<polyline points="737.192,355.718 737.192,355.025 " />
<polyline points="713.971,355.718 713.971,355.025 " />
<polyline points="713.971,380.335 737.192,380.335 " />
<polyline points="737.192,379.643 737.192,355.718 " />
<polyline points="713.971,355.718 713.971,379.643 " />
<polyline points="713.971,355.025 737.192,355.025 " />
<polyline points="741.28,355.656 741.28,374.541 " />
<polyline points="741.28,374.541 741.28,378.258 " />
<polyline points="741.28,356.349 741.28,375.234 " />
<polyline points="741.28,375.234 741.28,378.95 " />
<path d="M741.281,353.552  A2.32562,2.32562 0 0,0 738.956,351.219 " />
<polyline points="741.28,356.349 741.281,353.552 " />
<polyline points="726.039,351.219 738.956,351.219 " />
<polyline points="741.28,378.95 736.528,395.746 " />
<polyline points="713.125,289.175 713.125,288.859 " />
<polyline points="713.125,288.859 713.003,287.917 " />
<polyline points="713.003,287.917 712.669,286.543 " />
<polyline points="712.669,286.543 712.176,285.218 " />
<polyline points="712.176,285.218 711.75,284.368 " />
<polyline points="711.75,284.368 711.577,284.109 " />
<polyline points="711.577,284.109 703.529,272.168 " />
<polyline points="703.529,272.168 703.36,271.917 " />
<polyline points="703.36,271.917 702.708,271.274 " />
<polyline points="702.708,271.274 701.622,270.543 " />
<polyline points="701.622,270.543 700.409,270.05 " />
<polyline points="700.409,270.05 699.508,269.868 " />
<path d="M713.125,336.922  A14.3001,14.3001 0 0,0 727.425,351.222 " />
<polyline points="713.125,289.175 713.125,336.922 " />
<polyline points="699.508,269.868 699.05,269.868 " />
<polyline points="711.696,438.637 736.528,395.746 " />
<polyline points="699.05,269.868 698.123,269.865 " />
<polyline points="713.125,483.34 713.125,501.763 " />
<polyline points="699.212,464.033 699.508,464.033 " />
<polyline points="699.508,464.033 700.409,464.213 " />
<polyline points="700.409,464.213 701.622,464.708 " />
<polyline points="701.622,464.708 702.708,465.436 " />
<polyline points="702.708,465.436 703.36,466.08 " />
<polyline points="703.36,466.08 703.529,466.33 " />
<polyline points="703.529,466.33 711.577,478.273 " />
<polyline points="711.577,478.273 711.75,478.533 " />
<polyline points="711.75,478.533 712.176,479.382 " />
<polyline points="712.176,479.382 712.669,480.706 " />
<polyline points="712.669,480.706 713.003,482.082 " />
<polyline points="713.003,482.082 713.125,483.024 " />
<polyline points="713.125,483.024 713.125,483.34 " />
<polyline points="713.125,483.34 713.125,501.763 " />
<polyline points="699.212,464.033 698.123,464.033 " />
<polyline points="526.012,507.303 526.012,501.763 " />
<polyline points="713.125,507.303 713.125,501.763 " />
<polyline points="709.235,510.074 708.968,510.074 " />
<polyline points="708.968,510.074 528.781,510.074 " />
<polyline points="528.781,510.074 528.512,510.074 " />
<polyline points="528.512,510.074 527.705,509.855 " />
<polyline points="527.705,509.855 526.825,509.259 " />
<polyline points="526.825,509.259 526.229,508.378 " />
<polyline points="526.229,508.378 526.012,507.571 " />
<polyline points="526.012,507.571 526.012,507.303 " />
<polyline points="709.235,510.074 708.968,510.074 " />
<polyline points="713.125,507.303 713.125,507.571 " />
<polyline points="713.125,507.571 712.906,508.378 " />
<polyline points="712.906,508.378 712.31,509.259 " />
<polyline points="712.31,509.259 711.428,509.855 " />
<polyline points="711.428,509.855 710.62,510.074 " />
<polyline points="710.62,510.074 710.353,510.074 " />
<polyline points="709.235,510.074 710.353,510.074 " />
<circle cx="730.2" cy="385.116" r="1.66222" />
<circle cx="676.369" cy="382.125" r="1.66222" />
<circle cx="606.177" cy="371.922" r="1.66222" />
<circle cx="552.698" cy="382.477" r="1.66222" />
<circle cx="552.698" cy="302.962" r="1.66222" />
<circle cx="605.473" cy="322.665" r="1.66222" />
<circle cx="684.637" cy="299.444" r="1.66222" />
<circle cx="596.878" cy="268.414" r="1.66222" />
<polyline points="676.676,400.501 686.352,383.701 " />
<polyline points="686.352,383.701 703.152,393.406 " />
<polyline points="703.152,393.406 693.447,410.205 " />
<polyline points="693.447,410.205 676.676,400.501 " />
<polyline points="706.126,402.268 715.802,385.469 " />
<polyline points="715.802,385.469 732.601,395.173 " />
<polyline points="732.601,395.173 722.897,411.973 " />
<polyline points="722.897,411.973 706.126,402.268 " />
<polyline points="692.932,425.121 702.608,408.321 " />
<polyline points="702.608,408.321 719.408,418.026 " />
<polyline points="719.408,418.026 709.703,434.825 " />
<circle cx="552.698" cy="497.125" r="1.66222" />
<circle cx="684.637" cy="493.606" r="1.66222" />
<circle cx="596.878" cy="462.576" r="1.66222" />
<polyline points="608.993,375.6 628.402,375.6 " />
<polyline points="628.402,375.6 628.402,394.981 " />
<polyline points="628.402,394.981 608.993,394.981 " />
<polyline points="608.993,394.981 608.993,375.6 " />
<polyline points="855.286,352.496 874.696,352.496 " />
<polyline points="874.696,352.496 874.696,371.906 " />
<polyline points="874.696,371.906 855.286,371.906 " />
<polyline points="855.286,371.906 855.286,352.496 " />
<polyline points="855.286,326.108 874.696,326.108 " />
<polyline points="874.696,326.108 874.696,345.518 " />
<polyline points="874.696,345.518 855.286,345.518 " />
<polyline points="855.286,345.518 855.286,326.108 " />
<polyline points="802.509,359.093 821.92,359.093 " />
<polyline points="821.92,359.093 821.92,378.504 " />
<polyline points="821.92,378.504 802.509,378.504 " />
<polyline points="802.509,378.504 802.509,359.093 " />
<polyline points="802.509,279.93 821.92,279.93 " />
<polyline points="821.92,279.93 821.92,299.341 " />
<polyline points="821.92,299.341 802.509,299.341 " />
<polyline points="802.509,299.341 802.509,279.93 " />
<polyline points="934.45,276.646 953.859,276.646 " />
<polyline points="953.859,276.646 953.859,296.026 " />
<polyline points="953.859,296.026 934.45,296.026 " />
<polyline points="934.45,296.026 934.45,276.646 " />
<polyline points="802.509,306.318 821.92,306.318 " />
<polyline points="821.92,306.318 821.92,325.728 " />
<polyline points="821.92,325.728 802.509,325.728 " />
<polyline points="802.509,325.728 802.509,306.318 " />
<polyline points="802.509,332.705 821.92,332.705 " />
<polyline points="821.92,332.705 821.92,352.116 " />
<polyline points="821.92,352.116 802.509,352.116 " />
<polyline points="802.509,352.116 802.509,332.705 " />
<polyline points="828.899,279.93 848.308,279.93 " />
<polyline points="848.308,279.93 848.308,299.341 " />
<polyline points="848.308,299.341 828.899,299.341 " />
<polyline points="828.899,299.341 828.899,279.93 " />
<polyline points="828.899,306.318 848.308,306.318 " />
<polyline points="848.308,306.318 848.308,325.728 " />
<polyline points="848.308,325.728 828.899,325.728 " />
<polyline points="828.899,325.728 828.899,306.318 " />
<polyline points="828.899,332.705 848.308,332.705 " />
<polyline points="848.308,332.705 848.308,352.116 " />
<polyline points="848.308,352.116 828.899,352.116 " />
<polyline points="828.899,352.116 828.899,332.705 " />
<polyline points="828.899,359.093 848.308,359.093 " />
<polyline points="848.308,359.093 848.308,378.504 " />
<polyline points="848.308,378.504 828.899,378.504 " />
<polyline points="828.899,378.504 828.899,359.093 " />
<polyline points="855.285,273.332 874.696,273.332 " />
<polyline points="874.696,273.332 874.696,292.743 " />
<polyline points="874.696,292.743 855.285,292.743 " />
<polyline points="855.285,292.743 855.285,273.332 " />
<polyline points="855.285,299.72 874.696,299.72 " />
<polyline points="874.696,299.72 874.696,319.131 " />
<polyline points="874.696,319.131 855.285,319.131 " />
<polyline points="855.285,319.131 855.285,299.72 " />
<polyline points="881.674,270.049 901.083,270.049 " />
<polyline points="901.083,270.049 901.083,289.43 " />
<polyline points="901.083,289.43 881.674,289.43 " />
<polyline points="881.674,289.43 881.674,270.049 " />
<polyline points="881.674,296.437 901.083,296.437 " />
<polyline points="901.083,296.437 901.083,315.817 " />
<polyline points="901.083,315.817 881.674,315.817 " />
<polyline points="881.674,315.817 881.674,296.437 " />
<polyline points="881.674,322.825 901.083,322.825 " />
<polyline points="901.083,322.825 901.083,342.205 " />
<polyline points="901.083,342.205 881.674,342.205 " />
<polyline points="881.674,342.205 881.674,322.825 " />
<polyline points="881.674,349.213 901.083,349.213 " />
<polyline points="901.083,349.213 901.083,368.593 " />
<polyline points="901.083,368.593 881.674,368.593 " />
<polyline points="881.674,368.593 881.674,349.213 " />
<polyline points="908.062,273.332 927.471,273.332 " />
<polyline points="927.471,273.332 927.471,292.743 " />
<polyline points="927.471,292.743 908.062,292.743 " />
<polyline points="908.062,292.743 908.062,273.332 " />
<polyline points="908.062,299.72 927.471,299.72 " />
<polyline points="927.471,299.72 927.471,319.131 " />
<polyline points="927.471,319.131 908.062,319.131 " />
<polyline points="908.062,319.131 908.062,299.72 " />
<polyline points="908.062,326.108 927.471,326.108 " />
<polyline points="927.471,326.108 927.471,345.518 " />
<polyline points="927.471,345.518 908.062,345.518 " />
<polyline points="908.062,345.518 908.062,326.108 " />
<polyline points="908.062,352.496 927.471,352.496 " />
<polyline points="927.471,352.496 927.471,371.906 " />
<polyline points="927.471,371.906 908.062,371.906 " />
<polyline points="908.062,371.906 908.062,352.496 " />
<polyline points="934.45,303.033 953.859,303.033 " />
<polyline points="953.859,303.033 953.859,322.414 " />
<polyline points="953.859,322.414 934.45,322.414 " />
<polyline points="934.45,322.414 934.45,303.033 " />
<polyline points="934.45,329.421 953.859,329.421 " />
<polyline points="953.859,329.421 953.859,348.801 " />
<polyline points="953.859,348.801 934.45,348.801 " />
<polyline points="934.45,348.801 934.45,329.421 " />
<polyline points="934.45,355.809 953.859,355.809 " />
<polyline points="953.859,355.809 953.859,375.189 " />
<polyline points="953.859,375.189 934.45,375.189 " />
<polyline points="934.45,375.189 934.45,355.809 " />
<polyline points="960.838,289.84 980.247,289.84 " />
<polyline points="980.247,309.22 960.838,309.22 " />
<polyline points="960.838,309.22 960.838,289.84 " />
<polyline points="960.838,316.227 980.247,316.227 " />
<polyline points="980.247,316.227 980.247,335.607 " />
<polyline points="980.247,335.607 960.838,335.607 " />
<polyline points="960.838,335.607 960.838,316.227 " />
<polyline points="960.838,342.615 980.247,342.615 " />
<polyline points="980.247,342.615 980.247,361.995 " />
<polyline points="980.247,361.995 960.838,361.995 " />
<polyline points="960.838,361.995 960.838,342.615 " />
<polyline points="802.509,385.482 821.92,385.482 " />
<polyline points="821.92,385.482 821.92,404.892 " />
<polyline points="821.92,404.892 802.509,404.892 " />
<polyline points="802.509,404.892 802.509,385.482 " />
<polyline points="828.899,385.482 848.308,385.482 " />
<polyline points="848.308,385.482 848.308,404.892 " />
<polyline points="848.308,404.892 828.899,404.892 " />
<polyline points="828.899,404.892 828.899,385.482 " />
<polyline points="855.285,378.885 874.696,378.885 " />
<polyline points="874.696,378.885 874.696,398.294 " />
<polyline points="874.696,398.294 855.285,398.294 " />
<polyline points="855.285,398.294 855.285,378.885 " />
<polyline points="919.906,398.733 929.582,381.934 " />
<polyline points="929.582,381.934 946.382,391.638 " />
<polyline points="946.382,391.638 936.677,408.438 " />
<polyline points="936.677,408.438 919.906,398.733 " />
<polyline points="958.333,425.209 958.565,425.342 " />
<polyline points="970.803,269.865 970.506,269.865 " />
<polyline points="970.506,269.865 951.114,269.865 " />
<polyline points="951.114,269.865 950.799,269.865 " />
<polyline points="950.799,269.865 949.857,269.738 " />
<polyline points="949.857,269.738 948.491,269.394 " />
<polyline points="948.491,269.394 947.178,268.886 " />
<polyline points="947.178,268.886 946.336,268.445 " />
<polyline points="946.336,268.445 946.083,268.267 " />
<polyline points="946.083,268.267 933.726,259.526 " />
<polyline points="933.726,259.526 933.47,259.345 " />
<polyline points="933.47,259.345 932.628,258.903 " />
<polyline points="932.628,258.903 931.315,258.396 " />
<polyline points="931.315,258.396 929.949,258.052 " />
<polyline points="929.949,258.052 929.007,257.926 " />
<polyline points="929.007,257.926 928.695,257.926 " />
<polyline points="928.695,257.926 880.449,257.926 " />
<polyline points="880.449,257.926 879.76,257.926 " />
<polyline points="879.76,257.926 877.698,258.104 " />
<polyline points="877.698,258.104 875.347,258.449 " />
<polyline points="875.347,258.449 874.976,258.533 " />
<polyline points="874.976,258.533 801.394,275.075 " />
<polyline points="801.394,275.075 801.119,275.136 " />
<polyline points="801.119,275.136 800.344,275.529 " />
<polyline points="800.344,275.529 799.483,276.317 " />
<polyline points="799.483,276.317 798.903,277.327 " />
<polyline points="798.903,277.327 798.691,278.171 " />
<polyline points="798.691,278.171 798.691,278.453 " />
<polyline points="798.691,278.453 798.691,406.027 " />
<polyline points="798.691,406.027 798.691,406.295 " />
<polyline points="798.691,406.295 798.909,407.102 " />
<polyline points="798.909,407.102 799.504,407.982 " />
<polyline points="799.504,407.982 800.384,408.578 " />
<polyline points="800.384,408.578 801.192,408.796 " />
<polyline points="801.192,408.796 801.461,408.796 " />
<polyline points="801.461,408.796 927.114,408.796 " />
<polyline points="927.114,408.796 927.429,408.796 " />
<polyline points="927.429,408.796 928.378,408.906 " />
<polyline points="928.378,408.906 929.775,409.204 " />
<polyline points="929.775,409.204 931.132,409.643 " />
<polyline points="931.132,409.643 932.008,410.022 " />
<polyline points="932.008,410.022 932.283,410.18 " />
<polyline points="932.283,410.18 982.485,439.143 " />
<path d="M982.485,439.143  A1.38518,1.38518 0 0,0 984.376,438.637 " />
<polyline points="982.304,434.883 965.519,425.171 " />
<polyline points="965.519,425.171 965.852,424.596 " />
<polyline points="988.189,385.994 988.479,385.492 " />
<polyline points="988.479,385.492 1005.26,395.204 " />
<polyline points="798.691,501.763 798.691,472.618 " />
<polyline points="798.691,472.618 798.691,472.337 " />
<polyline points="798.691,472.337 798.903,471.495 " />
<polyline points="798.903,471.495 799.483,470.482 " />
<polyline points="799.483,470.482 800.344,469.694 " />
<polyline points="800.344,469.694 801.119,469.301 " />
<polyline points="801.119,469.301 801.394,469.24 " />
<polyline points="801.394,469.24 874.976,452.701 " />
<polyline points="874.976,452.701 875.347,452.616 " />
<polyline points="875.347,452.616 877.698,452.271 " />
<polyline points="877.698,452.271 879.76,452.093 " />
<polyline points="879.76,452.093 880.449,452.093 " />
<polyline points="880.449,452.093 928.695,452.093 " />
<polyline points="928.695,452.093 929.007,452.093 " />
<polyline points="929.007,452.093 929.947,452.219 " />
<polyline points="929.947,452.219 931.315,452.562 " />
<polyline points="931.315,452.562 932.628,453.071 " />
<polyline points="932.628,453.071 933.47,453.512 " />
<polyline points="933.47,453.512 933.726,453.693 " />
<polyline points="933.726,453.693 946.08,462.434 " />
<polyline points="946.08,462.434 946.333,462.613 " />
<polyline points="946.333,462.613 947.176,463.054 " />
<polyline points="947.176,463.054 948.491,463.562 " />
<polyline points="948.491,463.562 949.86,463.906 " />
<polyline points="949.86,463.906 950.799,464.033 " />
<polyline points="950.799,464.033 951.114,464.033 " />
<polyline points="951.114,464.033 970.506,464.033 " />
<polyline points="970.506,464.033 970.803,464.033 " />
<polyline points="980.247,289.84 980.247,309.22 " />
<polyline points="986.651,380.335 986.651,379.643 " />
<polyline points="1009.87,380.335 1009.87,379.643 " />
<polyline points="1009.87,355.718 1009.87,355.025 " />
<polyline points="986.651,355.718 986.651,355.025 " />
<polyline points="986.651,380.335 1009.87,380.335 " />
<polyline points="1009.87,379.643 1009.87,355.718 " />
<polyline points="986.651,355.718 986.651,379.643 " />
<polyline points="986.651,355.025 1009.87,355.025 " />
<polyline points="1013.96,355.656 1013.96,374.541 " />
<polyline points="1013.96,374.541 1013.96,378.258 " />
<polyline points="1013.96,356.349 1013.96,375.234 " />
<polyline points="1013.96,375.234 1013.96,378.95 " />
<path d="M1013.96,353.552  A2.32562,2.32562 0 0,0 1011.64,351.219 " />
<polyline points="1013.96,356.349 1013.96,353.552 " />
<polyline points="998.719,351.219 1011.64,351.219 " />
<polyline points="1013.96,378.95 1009.21,395.746 " />
<polyline points="985.804,289.175 985.804,288.859 " />
<polyline points="985.804,288.859 985.682,287.917 " />
<polyline points="985.682,287.917 985.348,286.543 " />
<polyline points="985.348,286.543 984.855,285.218 " />
<polyline points="984.855,285.218 984.43,284.368 " />
<polyline points="984.43,284.368 984.257,284.109 " />
<polyline points="984.257,284.109 976.209,272.168 " />
<polyline points="976.209,272.168 976.04,271.917 " />
<polyline points="976.04,271.917 975.388,271.274 " />
<polyline points="975.388,271.274 974.302,270.543 " />
<polyline points="974.302,270.543 973.088,270.05 " />
<polyline points="973.088,270.05 972.188,269.868 " />
<path d="M985.804,336.922  A14.3001,14.3001 0 0,0 1000.1,351.222 " />
<polyline points="985.804,289.175 985.804,336.922 " />
<polyline points="972.188,269.868 971.729,269.868 " />
<polyline points="984.376,438.637 1009.21,395.746 " />
<polyline points="971.729,269.868 970.803,269.865 " />
<polyline points="985.804,483.34 985.804,501.763 " />
<polyline points="971.891,464.033 972.188,464.033 " />
<polyline points="972.188,464.033 973.088,464.213 " />
<polyline points="973.088,464.213 974.302,464.708 " />
<polyline points="974.302,464.708 975.388,465.436 " />
<polyline points="975.388,465.436 976.04,466.08 " />
<polyline points="976.04,466.08 976.209,466.33 " />
<polyline points="976.209,466.33 984.257,478.273 " />
<polyline points="984.257,478.273 984.43,478.533 " />
<polyline points="984.43,478.533 984.855,479.382 " />
<polyline points="984.855,479.382 985.348,480.706 " />
<polyline points="985.348,480.706 985.682,482.082 " />
<polyline points="985.682,482.082 985.804,483.024 " />
<polyline points="985.804,483.024 985.804,483.34 " />
<polyline points="985.804,483.34 985.804,501.763 " />
<polyline points="971.891,464.033 970.803,464.033 " />
<polyline points="798.691,507.303 798.691,501.763 " />
<polyline points="985.804,507.303 985.804,501.763 " />
<polyline points="981.915,510.074 981.647,510.074 " />
<polyline points="981.647,510.074 801.461,510.074 " />
<polyline points="801.461,510.074 801.192,510.074 " />
<polyline points="801.192,510.074 800.384,509.855 " />
<polyline points="800.384,509.855 799.504,509.259 " />
<polyline points="799.504,509.259 798.909,508.378 " />
<polyline points="798.909,508.378 798.691,507.571 " />
<polyline points="798.691,507.571 798.691,507.303 " />
<polyline points="981.915,510.074 981.647,510.074 " />
<polyline points="985.804,507.303 985.804,507.571 " />
<polyline points="985.804,507.571 985.585,508.378 " />
<polyline points="985.585,508.378 984.99,509.259 " />
<polyline points="984.99,509.259 984.107,509.855 " />
<polyline points="984.107,509.855 983.3,510.074 " />
<polyline points="983.3,510.074 983.032,510.074 " />
<polyline points="981.915,510.074 983.032,510.074 " />
<circle cx="1002.88" cy="385.116" r="1.66222" />
<circle cx="949.048" cy="382.125" r="1.66222" />
<circle cx="878.857" cy="371.922" r="1.66222" />
<circle cx="825.378" cy="382.477" r="1.66222" />
<circle cx="825.378" cy="302.962" r="1.66222" />
<circle cx="878.153" cy="322.665" r="1.66222" />
<circle cx="957.316" cy="299.444" r="1.66222" />
<circle cx="869.558" cy="268.414" r="1.66222" />
<polyline points="949.356,400.501 959.032,383.701 " />
<polyline points="959.032,383.701 975.831,393.406 " />
<polyline points="975.831,393.406 966.127,410.205 " />
<polyline points="966.127,410.205 949.356,400.501 " />
<polyline points="978.805,402.268 988.481,385.469 " />
<polyline points="988.481,385.469 1005.28,395.173 " />
<polyline points="1005.28,395.173 995.576,411.973 " />
<polyline points="995.576,411.973 978.805,402.268 " />
<polyline points="965.611,425.121 975.288,408.321 " />
<polyline points="975.288,408.321 992.087,418.026 " />
<polyline points="992.087,418.026 982.382,434.825 " />
<circle cx="825.378" cy="497.125" r="1.66222" />
<circle cx="957.316" cy="493.606" r="1.66222" />
<circle cx="869.558" cy="462.576" r="1.66222" />
<polyline points="881.672,375.6 901.081,375.6 " />
<polyline points="901.081,375.6 901.081,394.981 " />
<polyline points="901.081,394.981 881.672,394.981 " />
<polyline points="881.672,394.981 881.672,375.6 " />
</g>
</svg>
